<svg
        xmlns="http://www.w3.org/2000/svg"
        xmlns:xlink="http://www.w3.org/1999/xlink"
        width="2086px" height="552px">
    <path fill-rule="evenodd"  fill="#ffffff"
          d="M0.770,430.210 L0.770,424.810 L2085.875,424.810 L2085.875,430.210 L0.770,430.210 ZM2074.896,374.681 C2072.916,376.602 2070.605,378.116 2067.966,379.226 C2065.325,380.337 2062.566,380.891 2059.686,380.891 L2001.996,380.891 L2001.996,405.461 L1984.176,405.461 L1984.176,339.041 L2057.706,339.041 C2060.825,339.041 2063.811,339.551 2066.661,340.571 C2069.510,341.592 2072.030,343.016 2074.221,344.846 C2076.411,346.677 2078.150,348.851 2079.441,351.371 C2080.730,353.891 2081.376,356.681 2081.376,359.741 C2081.376,362.681 2080.791,365.426 2079.621,367.976 C2078.451,370.527 2076.876,372.761 2074.896,374.681 ZM2063.736,355.961 L2001.996,355.961 L2001.996,364.421 L2063.736,364.421 L2063.736,355.961 ZM1936.477,405.461 L1919.377,405.461 L1919.377,355.961 L1880.767,355.961 L1880.767,339.041 L1975.177,339.041 L1975.177,355.961 L1936.477,355.961 L1936.477,405.461 ZM1854.937,380.351 L1793.647,380.351 L1793.647,405.461 L1776.817,405.461 L1776.817,339.041 L1793.647,339.041 L1793.647,363.431 L1854.937,363.431 L1854.937,339.041 L1871.767,339.041 L1871.767,405.461 L1854.937,405.461 L1854.937,380.351 ZM1767.819,388.091 L1767.819,405.731 L1697.979,405.731 C1694.919,405.731 1691.978,405.206 1689.159,404.156 C1686.338,403.107 1683.849,401.636 1681.689,399.746 C1679.529,397.856 1677.803,395.606 1676.514,392.996 C1675.223,390.386 1674.579,387.492 1674.579,384.311 L1674.579,360.191 C1674.579,356.831 1675.193,353.832 1676.424,351.191 C1677.653,348.551 1679.333,346.317 1681.464,344.486 C1683.593,342.656 1686.083,341.261 1688.934,340.301 C1691.783,339.342 1694.858,338.861 1698.159,338.861 L1767.819,338.861 L1767.819,355.961 L1691.499,355.961 L1691.499,363.701 L1767.819,363.701 L1767.819,380.891 L1691.499,380.891 L1691.499,388.091 L1767.819,388.091 ZM1658.650,339.581 L1658.650,387.821 L1665.580,387.821 L1665.580,405.461 L1587.820,405.461 C1585.239,405.461 1582.690,405.071 1580.170,404.291 C1577.650,403.512 1575.384,402.356 1573.375,400.826 C1571.364,399.296 1569.744,397.376 1568.515,395.066 C1567.284,392.757 1566.670,390.102 1566.670,387.101 L1566.670,339.581 L1583.860,339.581 L1583.860,387.821 L1641.640,387.821 L1641.640,339.581 L1658.650,339.581 ZM1429.241,312.311 L1479.461,312.311 L1479.461,327.431 L1429.241,327.431 L1429.241,312.311 ZM1488.731,338.771 C1490.711,339.432 1492.480,340.422 1494.041,341.741 C1495.601,343.061 1496.845,344.711 1497.776,346.691 C1498.706,348.671 1499.171,351.011 1499.171,353.711 L1499.171,405.461 L1482.341,405.461 L1482.341,355.781 L1437.071,399.971 C1435.330,402.011 1433.186,403.602 1430.636,404.741 C1428.085,405.880 1425.551,406.451 1423.031,406.451 C1420.390,406.451 1418.050,405.956 1416.011,404.966 C1413.971,403.976 1412.245,402.641 1410.836,400.961 C1409.426,399.282 1408.346,397.302 1407.596,395.021 C1406.845,392.741 1406.471,390.341 1406.471,387.821 L1406.471,339.311 L1423.391,339.311 L1423.391,388.811 L1468.661,344.261 C1473.101,339.941 1477.720,337.781 1482.521,337.781 C1484.681,337.781 1486.751,338.111 1488.731,338.771 ZM1381.182,406.001 L1381.182,339.131 L1397.472,339.131 L1397.472,406.001 L1381.182,406.001 ZM1351.842,363.971 C1354.722,363.971 1357.481,364.526 1360.122,365.636 C1362.761,366.747 1365.072,368.261 1367.052,370.181 C1369.032,372.102 1370.607,374.336 1371.777,376.886 C1372.947,379.437 1373.532,382.182 1373.532,385.121 C1373.532,388.122 1372.871,390.896 1371.552,393.446 C1370.231,395.997 1368.476,398.186 1366.287,400.016 C1364.096,401.847 1361.576,403.271 1358.727,404.291 C1355.876,405.312 1352.922,405.821 1349.862,405.821 L1297.932,405.821 L1297.932,339.131 L1315.752,339.131 L1315.752,363.971 L1351.842,363.971 ZM1315.752,388.901 L1355.892,388.901 L1355.892,380.441 L1315.752,380.441 L1315.752,388.901 ZM1193.982,405.461 L1193.982,339.041 L1210.812,339.041 L1210.812,363.431 L1272.102,363.431 L1272.102,339.041 L1288.932,339.041 L1288.932,405.461 L1272.102,405.461 L1272.102,380.351 L1210.812,380.351 L1210.812,405.461 L1193.982,405.461 ZM1087.827,351.708 C1088.997,349.253 1090.572,347.128 1092.552,345.331 C1094.532,343.534 1096.827,342.141 1099.437,341.153 C1102.047,340.166 1104.792,339.671 1107.672,339.671 L1155.912,339.671 C1158.792,339.671 1161.551,340.150 1164.192,341.108 C1166.831,342.067 1169.187,343.430 1171.257,345.196 C1173.327,346.962 1174.976,349.059 1176.207,351.483 C1177.436,353.909 1178.052,356.589 1178.052,359.524 L1178.052,387.821 L1184.982,387.821 L1184.982,405.461 L1081.482,405.461 L1081.482,387.821 L1086.072,387.821 L1086.072,359.793 C1086.072,356.859 1086.657,354.163 1087.827,351.708 ZM1101.732,387.821 L1161.582,387.821 L1161.582,356.591 L1101.732,356.591 L1101.732,387.821 ZM1016.682,343.451 C1018.122,342.011 1019.756,340.917 1021.587,340.166 C1023.417,339.416 1025.561,339.041 1028.022,339.041 C1030.421,339.041 1032.491,339.416 1034.232,340.166 C1035.972,340.917 1037.517,342.011 1038.867,343.451 C1040.217,344.891 1041.491,346.661 1042.692,348.761 C1043.892,350.862 1045.212,353.261 1046.652,355.961 L1072.482,405.461 L1054.122,405.461 L1044.132,388.091 L1011.192,388.091 L1002.012,405.461 L983.022,405.461 L1008.852,355.511 C1010.171,352.991 1011.447,350.711 1012.677,348.671 C1013.906,346.632 1015.242,344.891 1016.682,343.451 ZM1035.582,371.171 L1027.752,357.041 L1019.832,371.171 L1035.582,371.171 ZM878.623,405.821 L878.623,339.131 L974.023,339.131 L974.023,405.821 L956.383,405.821 L956.383,356.051 L895.993,356.051 L895.993,405.821 L878.623,405.821 ZM813.824,343.451 C815.264,342.011 816.898,340.917 818.729,340.166 C820.558,339.416 822.703,339.041 825.164,339.041 C827.563,339.041 829.633,339.416 831.374,340.166 C833.113,340.917 834.659,342.011 836.009,343.451 C837.359,344.891 838.633,346.661 839.834,348.761 C841.033,350.862 842.354,353.261 843.794,355.961 L869.624,405.461 L851.264,405.461 L841.274,388.091 L808.334,388.091 L799.154,405.461 L780.164,405.461 L805.994,355.511 C807.313,352.991 808.588,350.711 809.819,348.671 C811.048,346.632 812.384,344.891 813.824,343.451 ZM832.724,371.171 L824.894,357.041 L816.974,371.171 L832.724,371.171 ZM678.554,355.961 L678.554,339.041 L748.214,339.041 C751.153,339.041 753.988,339.506 756.719,340.436 C759.448,341.367 761.849,342.686 763.919,344.396 C765.989,346.106 767.638,348.191 768.869,350.651 C770.098,353.112 770.714,355.871 770.714,358.931 C770.714,361.151 770.368,363.356 769.679,365.546 C768.988,367.737 768.043,369.852 766.844,371.891 C769.724,375.191 771.164,379.061 771.164,383.501 C771.164,386.561 770.638,389.427 769.589,392.096 C768.538,394.766 767.069,397.061 765.179,398.981 C763.289,400.902 761.053,402.416 758.474,403.526 C755.893,404.637 753.043,405.191 749.924,405.191 L678.824,405.191 L678.824,388.271 L753.884,388.271 L753.884,380.891 L678.554,380.891 L678.554,363.701 L753.884,363.701 L753.884,355.961 L678.554,355.961 ZM627.255,375.221 L627.255,360.101 L669.555,360.101 L669.555,375.221 L627.255,375.221 ZM539.685,340.751 C542.505,339.792 545.385,339.311 548.325,339.311 L597.375,339.311 C600.134,339.311 602.775,339.896 605.295,341.066 C607.815,342.236 610.034,343.781 611.955,345.701 C613.875,347.622 615.405,349.872 616.545,352.451 C617.684,355.031 618.255,357.702 618.255,360.461 L618.255,385.031 C618.255,387.791 617.670,390.386 616.500,392.816 C615.330,395.246 613.769,397.376 611.820,399.206 C609.870,401.037 607.620,402.491 605.070,403.571 C602.519,404.651 599.864,405.191 597.105,405.191 L545.895,405.191 C542.894,405.191 540.104,404.666 537.525,403.616 C534.945,402.567 532.710,401.096 530.820,399.206 C528.930,397.316 527.445,395.081 526.365,392.501 C525.285,389.922 524.745,387.101 524.745,384.041 L524.745,358.931 C524.745,356.051 525.420,353.411 526.770,351.011 C528.120,348.612 529.905,346.542 532.125,344.801 C534.344,343.061 536.864,341.711 539.685,340.751 ZM541.935,388.541 L600.795,388.541 L600.795,356.501 L541.935,356.501 L541.935,388.541 ZM418.546,405.461 L418.546,339.041 L492.076,339.041 C495.195,339.041 498.180,339.551 501.031,340.571 C503.880,341.592 506.400,343.016 508.591,344.846 C510.780,346.677 512.520,348.851 513.811,351.371 C515.101,353.891 515.746,356.681 515.746,359.741 C515.746,362.681 515.161,365.426 513.991,367.976 C512.821,370.527 511.246,372.761 509.266,374.681 C507.286,376.602 504.975,378.116 502.336,379.226 C499.695,380.337 496.936,380.891 494.056,380.891 L436.366,380.891 L436.366,405.461 L418.546,405.461 ZM498.106,364.421 L498.106,355.961 L436.366,355.961 L436.366,364.421 L498.106,364.421 ZM409.547,388.091 L409.547,405.731 L339.707,405.731 C336.647,405.731 333.707,405.206 330.887,404.156 C328.066,403.107 325.577,401.636 323.417,399.746 C321.257,397.856 319.532,395.606 318.242,392.996 C316.951,390.386 316.307,387.492 316.307,384.311 L316.307,360.191 C316.307,356.831 316.922,353.832 318.152,351.191 C319.381,348.551 321.062,346.317 323.192,344.486 C325.321,342.656 327.812,341.261 330.662,340.301 C333.511,339.342 336.587,338.861 339.887,338.861 L409.547,338.861 L409.547,355.961 L333.227,355.961 L333.227,363.701 L409.547,363.701 L409.547,380.891 L333.227,380.891 L333.227,388.091 L409.547,388.091 ZM307.218,383.861 C307.218,386.862 306.588,389.666 305.329,392.276 C304.069,394.886 302.406,397.167 300.339,399.116 C298.270,401.066 295.886,402.612 293.189,403.751 C290.492,404.891 287.705,405.461 284.828,405.461 L211.098,405.461 L211.098,339.041 L281.860,339.041 C285.278,339.041 288.454,339.446 291.392,340.256 C294.328,341.066 296.861,342.312 298.989,343.991 C301.116,345.671 302.780,347.802 303.979,350.381 C305.178,352.961 305.778,355.992 305.778,359.471 C305.778,363.851 304.519,367.991 302.002,371.891 C303.200,373.691 304.369,375.626 305.508,377.696 C306.647,379.766 307.218,381.822 307.218,383.861 ZM288.138,355.961 L228.738,355.961 L228.738,363.431 L288.138,363.431 L288.138,355.961 ZM288.138,380.621 L228.738,380.621 L228.738,388.271 L288.138,388.271 L288.138,380.621 ZM202.099,388.091 L202.099,405.731 L132.259,405.731 C129.199,405.731 126.259,405.206 123.439,404.156 C120.618,403.107 118.129,401.636 115.969,399.746 C113.809,397.856 112.084,395.606 110.794,392.996 C109.503,390.386 108.859,387.492 108.859,384.311 L108.859,360.191 C108.859,356.831 109.474,353.832 110.704,351.191 C111.933,348.551 113.614,346.317 115.744,344.486 C117.873,342.656 120.364,341.261 123.214,340.301 C126.063,339.342 129.139,338.861 132.439,338.861 L202.099,338.861 L202.099,355.961 L125.779,355.961 L125.779,363.701 L202.099,363.701 L202.099,380.891 L125.779,380.891 L125.779,388.091 L202.099,388.091 ZM16.000,262.000 L1867.000,262.000 L1867.000,274.000 L16.000,274.000 L16.000,262.000 ZM99.860,388.901 L99.860,405.461 L27.140,405.461 C24.380,405.461 21.695,404.981 19.085,404.021 C16.475,403.062 14.150,401.712 12.110,399.971 C10.070,398.231 8.420,396.177 7.160,393.806 C5.900,391.436 5.270,388.811 5.270,385.931 L5.270,363.611 C5.270,355.331 7.385,349.181 11.615,345.161 C15.845,341.142 22.130,339.131 30.470,339.131 L99.860,339.131 L99.860,355.781 L22.550,355.781 L22.550,388.901 L99.860,388.901 ZM1229.808,62.233 L1174.407,183.364 C1170.230,192.549 1166.372,200.477 1162.826,207.152 C1159.275,213.833 1155.363,219.467 1151.088,224.054 C1146.809,228.647 1141.855,232.036 1136.221,234.227 C1130.587,236.418 1123.491,237.513 1114.937,237.513 C1107.425,237.513 1100.642,235.997 1094.592,232.975 C1088.537,229.952 1083.011,225.932 1078.003,220.924 C1072.995,215.916 1068.505,210.126 1064.544,203.553 C1060.578,196.980 1057.032,190.148 1053.902,183.051 L999.440,64.424 L999.440,231.879 L962.196,231.879 L943.413,231.879 L691.764,231.879 C682.790,231.879 673.923,230.525 665.159,227.810 C656.395,225.101 648.516,221.081 641.528,215.760 C635.015,210.805 629.698,204.660 625.543,197.352 C622.843,201.726 619.730,205.732 616.175,209.343 C609.602,216.024 601.826,221.291 592.857,225.150 C583.883,229.013 573.969,230.940 563.122,230.940 L333.697,230.940 L333.697,231.879 L80.793,231.879 C71.193,231.879 61.857,230.212 52.780,226.871 C43.703,223.536 35.614,218.841 28.522,212.786 C21.426,206.737 15.689,199.591 11.307,191.346 C6.925,183.105 4.734,173.974 4.734,163.958 L4.734,86.334 C4.734,57.538 12.090,36.152 26.801,22.169 C41.512,8.192 63.368,1.198 92.374,1.198 L314.913,1.198 L314.913,0.885 L557.175,0.885 C567.396,0.885 577.256,2.504 586.753,5.737 C596.246,8.974 604.594,13.562 611.793,19.509 C614.086,21.403 616.213,23.444 618.209,25.602 L618.209,2.763 L677.992,2.763 L677.992,170.531 L878.938,170.531 L878.938,2.763 L938.095,2.763 L938.095,170.531 L943.413,170.531 L943.413,58.477 C943.413,50.550 944.870,43.091 947.795,36.098 C950.715,29.109 954.681,23.059 959.689,17.944 C964.697,12.833 970.644,8.764 977.530,5.737 C984.416,2.714 991.820,1.198 999.753,1.198 C1007.265,1.198 1014.200,2.504 1020.567,5.111 C1026.930,7.722 1032.721,11.268 1037.939,15.753 C1043.152,20.242 1047.745,25.510 1051.711,31.559 C1055.672,37.614 1059.013,44.079 1061.727,50.965 L1113.998,179.608 L1171.277,44.079 C1176.075,30.933 1183.327,20.502 1193.030,12.779 C1202.733,5.062 1214.471,1.198 1228.243,1.198 C1237.007,1.198 1244.935,2.974 1252.031,6.519 C1259.122,10.070 1265.177,14.814 1270.185,20.761 C1275.193,26.708 1279.052,33.545 1281.766,41.262 C1284.475,48.985 1285.835,57.020 1285.835,65.363 L1285.835,231.879 L1229.808,231.879 L1229.808,62.233 ZM576.894,146.430 L314.913,146.430 L314.913,86.647 L576.894,86.647 L576.894,59.729 L314.913,59.729 L314.913,59.103 L64.830,59.103 L64.830,174.287 L315.852,174.287 L315.852,172.096 L576.894,172.096 L576.894,146.430 ZM5.270,526.961 L5.270,477.101 C5.270,474.821 5.690,472.677 6.530,470.666 C7.370,468.656 8.510,466.917 9.950,465.446 C11.390,463.976 13.100,462.806 15.080,461.936 C17.060,461.067 19.190,460.631 21.470,460.631 C23.630,460.631 25.625,461.006 27.455,461.756 C29.285,462.507 30.950,463.526 32.450,464.816 C33.950,466.107 35.270,467.621 36.410,469.361 C37.550,471.102 38.510,472.961 39.290,474.941 L54.320,511.931 L70.790,472.961 C72.170,469.181 74.255,466.181 77.045,463.961 C79.835,461.742 83.210,460.631 87.170,460.631 C89.690,460.631 91.970,461.141 94.010,462.161 C96.050,463.182 97.790,464.546 99.231,466.256 C100.670,467.966 101.780,469.932 102.560,472.151 C103.340,474.371 103.730,476.682 103.730,479.081 L103.730,526.961 L87.620,526.961 L87.620,478.181 L71.690,513.011 C70.490,515.652 69.380,517.931 68.360,519.851 C67.340,521.772 66.215,523.392 64.985,524.711 C63.755,526.031 62.330,527.006 60.710,527.636 C59.090,528.266 57.050,528.581 54.590,528.581 C52.430,528.581 50.480,528.145 48.740,527.276 C47.000,526.407 45.410,525.251 43.970,523.811 C42.530,522.371 41.240,520.706 40.100,518.816 C38.960,516.926 37.940,514.961 37.040,512.921 L21.380,478.811 L21.380,526.961 L5.270,526.961 ZM205.969,509.591 L205.969,527.231 L136.129,527.231 C133.069,527.231 130.129,526.706 127.309,525.656 C124.488,524.607 121.999,523.136 119.839,521.246 C117.679,519.356 115.954,517.106 114.664,514.496 C113.373,511.886 112.729,508.992 112.729,505.811 L112.729,481.691 C112.729,478.331 113.344,475.332 114.574,472.691 C115.803,470.051 117.484,467.817 119.614,465.986 C121.743,464.156 124.234,462.761 127.084,461.801 C129.933,460.842 133.009,460.361 136.309,460.361 L205.969,460.361 L205.969,477.461 L129.649,477.461 L129.649,485.201 L205.969,485.201 L205.969,502.391 L129.649,502.391 L129.649,509.591 L205.969,509.591 ZM253.578,526.961 L253.578,477.461 L214.968,477.461 L214.968,460.541 L309.378,460.541 L309.378,477.461 L270.678,477.461 L270.678,526.961 L253.578,526.961 ZM346.547,509.591 L337.367,526.961 L318.377,526.961 L344.207,477.011 C345.526,474.491 346.801,472.211 348.032,470.171 C349.261,468.132 350.597,466.391 352.037,464.951 C353.477,463.511 355.111,462.417 356.942,461.666 C358.771,460.916 360.916,460.541 363.377,460.541 C365.776,460.541 367.846,460.916 369.587,461.666 C371.326,462.417 372.872,463.511 374.222,464.951 C375.572,466.391 376.846,468.161 378.047,470.261 C379.246,472.362 380.567,474.761 382.007,477.461 L407.837,526.961 L389.477,526.961 L379.487,509.591 L346.547,509.591 ZM363.107,478.541 L355.187,492.671 L370.937,492.671 L363.107,478.541 ZM416.836,527.321 L416.836,482.321 C416.836,479.681 417.421,477.071 418.591,474.491 C419.761,471.912 421.321,469.586 423.271,467.516 C425.220,465.446 427.425,463.781 429.886,462.521 C432.346,461.261 434.866,460.631 437.446,460.631 L512.236,460.631 L512.236,527.321 L494.596,527.321 L494.596,477.551 L434.206,477.551 L434.206,527.321 L416.836,527.321 ZM521.235,527.321 L521.235,482.321 C521.235,479.681 521.820,477.071 522.990,474.491 C524.160,471.912 525.720,469.586 527.670,467.516 C529.619,465.446 531.824,463.781 534.285,462.521 C536.745,461.261 539.265,460.631 541.845,460.631 L616.635,460.631 L616.635,527.321 L598.995,527.321 L598.995,477.551 L538.605,477.551 L538.605,527.321 L521.235,527.321 ZM705.959,525.071 C703.408,526.151 700.753,526.691 697.994,526.691 L646.784,526.691 C643.783,526.691 640.993,526.166 638.414,525.116 C635.834,524.067 633.599,522.596 631.709,520.706 C629.819,518.816 628.334,516.581 627.254,514.001 C626.174,511.422 625.634,508.601 625.634,505.541 L625.634,480.431 C625.634,477.551 626.309,474.911 627.659,472.511 C629.009,470.112 630.794,468.042 633.014,466.301 C635.233,464.561 637.753,463.211 640.574,462.251 C643.394,461.292 646.274,460.811 649.214,460.811 L698.264,460.811 C701.023,460.811 703.664,461.396 706.184,462.566 C708.704,463.736 710.923,465.281 712.844,467.201 C714.764,469.122 716.294,471.372 717.434,473.951 C718.573,476.531 719.144,479.202 719.144,481.961 L719.144,506.531 C719.144,509.291 718.559,511.886 717.389,514.316 C716.219,516.746 714.658,518.876 712.709,520.706 C710.759,522.537 708.509,523.991 705.959,525.071 ZM701.684,478.001 L642.824,478.001 L642.824,510.041 L701.684,510.041 L701.684,478.001 ZM808.468,525.071 C805.917,526.151 803.262,526.691 800.503,526.691 L749.293,526.691 C746.292,526.691 743.502,526.166 740.923,525.116 C738.343,524.067 736.108,522.596 734.218,520.706 C732.328,518.816 730.843,516.581 729.763,514.001 C728.683,511.422 728.143,508.601 728.143,505.541 L728.143,480.431 C728.143,477.551 728.818,474.911 730.168,472.511 C731.518,470.112 733.303,468.042 735.523,466.301 C737.742,464.561 740.262,463.211 743.083,462.251 C745.903,461.292 748.783,460.811 751.723,460.811 L800.773,460.811 C803.532,460.811 806.173,461.396 808.693,462.566 C811.213,463.736 813.432,465.281 815.353,467.201 C817.273,469.122 818.803,471.372 819.943,473.951 C821.083,476.531 821.653,479.202 821.653,481.961 L821.653,506.531 C821.653,509.291 821.068,511.886 819.898,514.316 C818.728,516.746 817.167,518.876 815.218,520.706 C813.268,522.537 811.018,523.991 808.468,525.071 ZM804.193,478.001 L745.333,478.001 L745.333,510.041 L804.193,510.041 L804.193,478.001 ZM905.353,485.921 C908.233,485.921 910.978,486.431 913.588,487.451 C916.198,488.472 918.522,489.896 920.563,491.726 C922.602,493.557 924.222,495.717 925.423,498.206 C926.622,500.696 927.223,503.412 927.223,506.351 C927.223,509.411 926.577,512.216 925.288,514.766 C923.997,517.317 922.302,519.506 920.203,521.336 C918.102,523.167 915.672,524.607 912.913,525.656 C910.152,526.706 907.302,527.231 904.363,527.231 L854.413,527.231 L830.653,527.141 L830.653,482.231 C830.653,479.351 831.252,476.621 832.453,474.041 C833.652,471.462 835.243,469.181 837.223,467.201 C839.203,465.221 841.482,463.661 844.063,462.521 C846.642,461.382 849.342,460.811 852.163,460.811 L923.533,460.811 L923.533,478.271 L847.933,478.271 L847.933,485.921 L905.353,485.921 ZM847.933,509.231 L911.293,509.231 L911.293,501.491 L847.933,501.491 L847.933,509.231 ZM936.222,526.961 L936.222,460.541 L1009.752,460.541 C1012.871,460.541 1015.856,461.051 1018.707,462.071 C1021.556,463.092 1024.076,464.516 1026.267,466.346 C1028.456,468.177 1030.196,470.351 1031.487,472.871 C1032.776,475.391 1033.422,478.181 1033.422,481.241 C1033.422,484.181 1032.837,486.926 1031.667,489.476 C1030.497,492.027 1028.922,494.261 1026.942,496.181 C1024.962,498.102 1022.651,499.616 1020.012,500.726 C1017.371,501.837 1014.612,502.391 1011.732,502.391 L954.042,502.391 L954.042,526.961 L936.222,526.961 ZM1015.782,485.921 L1015.782,477.461 L954.042,477.461 L954.042,485.921 L1015.782,485.921 ZM1070.591,509.591 L1061.411,526.961 L1042.421,526.961 L1068.251,477.011 C1069.570,474.491 1070.846,472.211 1072.076,470.171 C1073.305,468.132 1074.641,466.391 1076.081,464.951 C1077.521,463.511 1079.155,462.417 1080.986,461.666 C1082.816,460.916 1084.960,460.541 1087.421,460.541 C1089.820,460.541 1091.890,460.916 1093.631,461.666 C1095.371,462.417 1096.916,463.511 1098.266,464.951 C1099.616,466.391 1100.890,468.161 1102.091,470.261 C1103.291,472.362 1104.611,474.761 1106.051,477.461 L1131.881,526.961 L1113.521,526.961 L1103.531,509.591 L1070.591,509.591 ZM1087.151,478.541 L1079.231,492.671 L1094.981,492.671 L1087.151,478.541 ZM1215.580,485.921 C1218.460,485.921 1221.205,486.431 1223.816,487.451 C1226.426,488.472 1228.750,489.896 1230.791,491.726 C1232.830,493.557 1234.450,495.717 1235.650,498.206 C1236.850,500.696 1237.451,503.412 1237.451,506.351 C1237.451,509.411 1236.805,512.216 1235.515,514.766 C1234.225,517.317 1232.530,519.506 1230.431,521.336 C1228.330,523.167 1225.900,524.607 1223.140,525.656 C1220.380,526.706 1217.530,527.231 1214.590,527.231 L1164.640,527.231 L1140.880,527.141 L1140.880,482.231 C1140.880,479.351 1141.480,476.621 1142.681,474.041 C1143.880,471.462 1145.470,469.181 1147.450,467.201 C1149.431,465.221 1151.710,463.661 1154.291,462.521 C1156.869,461.382 1159.570,460.811 1162.390,460.811 L1233.760,460.811 L1233.760,478.271 L1158.161,478.271 L1158.161,485.921 L1215.580,485.921 ZM1158.161,509.231 L1221.520,509.231 L1221.520,501.491 L1158.161,501.491 L1158.161,509.231 ZM1326.774,525.071 C1324.223,526.151 1321.568,526.691 1318.809,526.691 L1267.599,526.691 C1264.598,526.691 1261.808,526.166 1259.229,525.116 C1256.649,524.067 1254.414,522.596 1252.524,520.706 C1250.635,518.816 1249.149,516.581 1248.069,514.001 C1246.989,511.422 1246.449,508.601 1246.449,505.541 L1246.449,480.431 C1246.449,477.551 1247.124,474.911 1248.474,472.511 C1249.824,470.112 1251.609,468.042 1253.829,466.301 C1256.049,464.561 1258.568,463.211 1261.389,462.251 C1264.209,461.292 1267.089,460.811 1270.029,460.811 L1319.079,460.811 C1321.838,460.811 1324.479,461.396 1326.999,462.566 C1329.519,463.736 1331.739,465.281 1333.659,467.201 C1335.579,469.122 1337.109,471.372 1338.249,473.951 C1339.389,476.531 1339.959,479.202 1339.959,481.961 L1339.959,506.531 C1339.959,509.291 1339.374,511.886 1338.204,514.316 C1337.034,516.746 1335.473,518.876 1333.524,520.706 C1331.574,522.537 1329.324,523.991 1326.774,525.071 ZM1322.499,478.001 L1263.639,478.001 L1263.639,510.041 L1322.499,510.041 L1322.499,478.001 ZM1387.569,526.961 L1387.569,477.461 L1348.959,477.461 L1348.959,460.541 L1443.369,460.541 L1443.369,477.461 L1404.669,477.461 L1404.669,526.961 L1387.569,526.961 ZM1511.947,526.961 L1481.888,509.771 C1479.067,508.211 1476.803,506.636 1475.093,505.046 C1473.383,503.457 1471.988,501.371 1470.908,498.791 L1470.908,526.961 L1452.368,526.961 L1452.368,460.541 L1470.908,460.541 L1470.908,489.161 C1472.047,486.582 1473.577,484.467 1475.498,482.816 C1477.417,481.166 1479.908,479.441 1482.968,477.641 L1511.947,460.631 L1546.327,460.631 L1489.178,493.841 L1546.778,526.961 L1511.947,526.961 ZM1586.376,521.471 C1584.275,523.752 1582.041,525.401 1579.671,526.421 C1577.300,527.440 1574.856,527.951 1572.336,527.951 C1569.695,527.951 1567.355,527.456 1565.316,526.466 C1563.276,525.476 1561.550,524.141 1560.141,522.461 C1558.731,520.782 1557.651,518.802 1556.901,516.521 C1556.150,514.241 1555.776,511.841 1555.776,509.321 L1555.776,460.811 L1572.696,460.811 L1572.696,510.311 L1617.966,465.761 C1622.406,461.441 1627.025,459.281 1631.826,459.281 C1633.986,459.281 1636.056,459.596 1638.036,460.226 C1640.016,460.856 1641.785,461.816 1643.346,463.106 C1644.906,464.397 1646.150,466.046 1647.081,468.056 C1648.011,470.067 1648.476,472.452 1648.476,475.211 L1648.476,526.961 L1631.646,526.961 L1631.646,477.281 L1586.376,521.471 ZM1652.975,551.710 L0.770,551.710 L0.770,546.310 L1652.975,546.310 L1652.975,551.710 Z"/>
</svg>